<svg width="245" height="47" viewBox="0 0 245 47" fill="none" xmlns="http://www.w3.org/2000/svg">
<path d="M29.208 1.92V36H22.632V21.456H7.176V36H0.552V1.92H7.176V15.696H22.632V1.92H29.208ZM33.6844 28.56C33.6844 26.928 34.1324 25.504 35.0284 24.288C35.9564 23.04 37.2364 22.08 38.8684 21.408C40.5004 20.736 42.3724 20.4 44.4844 20.4C45.5404 20.4 46.6124 20.48 47.7004 20.64C48.7884 20.8 49.7324 21.056 50.5324 21.408V20.064C50.5324 18.464 50.0524 17.232 49.0924 16.368C48.1644 15.504 46.7724 15.072 44.9164 15.072C43.5404 15.072 42.2284 15.312 40.9804 15.792C39.7324 16.272 38.4204 16.976 37.0444 17.904L34.9804 13.68C36.6444 12.592 38.3404 11.776 40.0684 11.232C41.8284 10.688 43.6684 10.416 45.5884 10.416C49.1724 10.416 51.9564 11.312 53.9404 13.104C55.9564 14.896 56.9644 17.456 56.9644 20.784V28.8C56.9644 29.472 57.0764 29.952 57.3004 30.24C57.5564 30.528 57.9564 30.704 58.5004 30.768V36C57.9244 36.096 57.3964 36.176 56.9164 36.24C56.4684 36.304 56.0844 36.336 55.7644 36.336C54.4844 36.336 53.5084 36.048 52.8364 35.472C52.1964 34.896 51.7964 34.192 51.6364 33.36L51.4924 32.064C50.4044 33.472 49.0444 34.56 47.4124 35.328C45.7804 36.096 44.1164 36.48 42.4204 36.48C40.7564 36.48 39.2524 36.144 37.9084 35.472C36.5964 34.768 35.5564 33.824 34.7884 32.64C34.0524 31.424 33.6844 30.064 33.6844 28.56ZM49.3324 29.856C49.6844 29.472 49.9724 29.088 50.1964 28.704C50.4204 28.32 50.5324 27.968 50.5324 27.648V25.104C49.7644 24.784 48.9324 24.544 48.0364 24.384C47.1404 24.192 46.2924 24.096 45.4924 24.096C43.8284 24.096 42.4524 24.464 41.3644 25.2C40.3084 25.904 39.7804 26.848 39.7804 28.032C39.7804 28.672 39.9564 29.28 40.3084 29.856C40.6604 30.432 41.1724 30.896 41.8444 31.248C42.5164 31.6 43.3164 31.776 44.2444 31.776C45.2044 31.776 46.1484 31.6 47.0764 31.248C48.0044 30.864 48.7564 30.4 49.3324 29.856ZM72.2389 36.48C70.0949 36.48 68.0469 36.128 66.0949 35.424C64.1429 34.72 62.4629 33.68 61.0549 32.304L63.3589 28.128C64.8629 29.344 66.3349 30.24 67.7749 30.816C69.2469 31.392 70.6549 31.68 71.9989 31.68C73.2469 31.68 74.2389 31.456 74.9749 31.008C75.7429 30.56 76.1269 29.888 76.1269 28.992C76.1269 28.384 75.9189 27.92 75.5029 27.6C75.0869 27.248 74.4789 26.944 73.6789 26.688C72.9109 26.432 71.9669 26.144 70.8469 25.824C68.9909 25.216 67.4389 24.624 66.1909 24.048C64.9429 23.472 63.9989 22.752 63.3589 21.888C62.7509 20.992 62.4469 19.856 62.4469 18.48C62.4469 16.816 62.8629 15.392 63.6949 14.208C64.5589 12.992 65.7429 12.048 67.2469 11.376C68.7829 10.704 70.5749 10.368 72.6229 10.368C74.4149 10.368 76.1109 10.656 77.7109 11.232C79.3109 11.776 80.7669 12.672 82.0789 13.92L79.4869 18C78.2069 17.008 76.9909 16.288 75.8389 15.84C74.6869 15.36 73.5189 15.12 72.3349 15.12C71.6629 15.12 71.0229 15.2 70.4149 15.36C69.8389 15.52 69.3589 15.792 68.9749 16.176C68.6229 16.528 68.4469 17.04 68.4469 17.712C68.4469 18.32 68.6069 18.8 68.9269 19.152C69.2789 19.472 69.7909 19.76 70.4629 20.016C71.1669 20.272 72.0149 20.56 73.0069 20.88C75.0229 21.456 76.7189 22.048 78.0949 22.656C79.5029 23.264 80.5589 24.016 81.2629 24.912C81.9669 25.776 82.3189 26.976 82.3189 28.512C82.3189 31.008 81.4069 32.96 79.5829 34.368C77.7589 35.776 75.3109 36.48 72.2389 36.48ZM110.07 36H103.638V21.888C103.638 19.936 103.254 18.48 102.486 17.52C101.75 16.56 100.726 16.08 99.4136 16.08C98.6456 16.08 97.8296 16.304 96.9656 16.752C96.1016 17.2 95.3176 17.824 94.6136 18.624C93.9416 19.392 93.4456 20.288 93.1256 21.312V36H86.6936V0.959999H93.1256V15.504C94.0536 13.904 95.3176 12.656 96.9176 11.76C98.5176 10.864 100.262 10.416 102.15 10.416C103.782 10.416 105.11 10.704 106.134 11.28C107.158 11.824 107.958 12.576 108.534 13.536C109.11 14.464 109.51 15.52 109.734 16.704C109.958 17.856 110.07 19.056 110.07 20.304V36ZM130.594 34.704C130.05 34.928 129.394 35.184 128.626 35.472C127.858 35.76 127.026 35.984 126.13 36.144C125.266 36.336 124.386 36.432 123.49 36.432C122.306 36.432 121.218 36.224 120.226 35.808C119.234 35.392 118.434 34.736 117.826 33.84C117.25 32.912 116.962 31.712 116.962 30.24V15.792H113.65V10.848H116.962V2.688H123.394V10.848H128.674V15.792H123.394V28.08C123.426 28.944 123.666 29.568 124.114 29.952C124.562 30.336 125.122 30.528 125.794 30.528C126.466 30.528 127.122 30.416 127.762 30.192C128.402 29.968 128.914 29.776 129.298 29.616L130.594 34.704ZM132.216 28.56C132.216 26.928 132.664 25.504 133.56 24.288C134.488 23.04 135.768 22.08 137.4 21.408C139.032 20.736 140.904 20.4 143.016 20.4C144.072 20.4 145.144 20.48 146.232 20.64C147.32 20.8 148.264 21.056 149.064 21.408V20.064C149.064 18.464 148.584 17.232 147.624 16.368C146.696 15.504 145.304 15.072 143.448 15.072C142.072 15.072 140.76 15.312 139.512 15.792C138.264 16.272 136.952 16.976 135.576 17.904L133.512 13.68C135.176 12.592 136.872 11.776 138.6 11.232C140.36 10.688 142.2 10.416 144.12 10.416C147.704 10.416 150.488 11.312 152.472 13.104C154.488 14.896 155.496 17.456 155.496 20.784V28.8C155.496 29.472 155.608 29.952 155.832 30.24C156.088 30.528 156.488 30.704 157.032 30.768V36C156.456 36.096 155.928 36.176 155.448 36.24C155 36.304 154.616 36.336 154.296 36.336C153.016 36.336 152.04 36.048 151.368 35.472C150.728 34.896 150.328 34.192 150.168 33.36L150.024 32.064C148.936 33.472 147.576 34.56 145.944 35.328C144.312 36.096 142.648 36.48 140.952 36.48C139.288 36.48 137.784 36.144 136.44 35.472C135.128 34.768 134.088 33.824 133.32 32.64C132.584 31.424 132.216 30.064 132.216 28.56ZM147.864 29.856C148.216 29.472 148.504 29.088 148.728 28.704C148.952 28.32 149.064 27.968 149.064 27.648V25.104C148.296 24.784 147.464 24.544 146.568 24.384C145.672 24.192 144.824 24.096 144.024 24.096C142.36 24.096 140.984 24.464 139.896 25.2C138.84 25.904 138.312 26.848 138.312 28.032C138.312 28.672 138.488 29.28 138.84 29.856C139.192 30.432 139.704 30.896 140.376 31.248C141.048 31.6 141.848 31.776 142.776 31.776C143.736 31.776 144.68 31.6 145.608 31.248C146.536 30.864 147.288 30.4 147.864 29.856ZM171.346 36.144C169.682 36.144 168.146 35.824 166.738 35.184C165.362 34.512 164.162 33.584 163.138 32.4C162.146 31.216 161.378 29.856 160.834 28.32C160.29 26.784 160.018 25.152 160.018 23.424C160.018 21.6 160.306 19.904 160.882 18.336C161.458 16.768 162.258 15.392 163.282 14.208C164.338 12.992 165.57 12.064 166.978 11.424C168.418 10.752 170.002 10.416 171.73 10.416C173.682 10.416 175.394 10.864 176.866 11.76C178.338 12.624 179.554 13.792 180.514 15.264V10.848H186.13V34.8C186.13 37.296 185.522 39.424 184.306 41.184C183.122 42.976 181.474 44.336 179.362 45.264C177.25 46.224 174.85 46.704 172.162 46.704C169.442 46.704 167.138 46.24 165.25 45.312C163.362 44.416 161.746 43.136 160.402 41.472L163.906 38.064C164.866 39.248 166.066 40.176 167.506 40.848C168.978 41.52 170.53 41.856 172.162 41.856C173.538 41.856 174.786 41.6 175.906 41.088C177.058 40.608 177.97 39.84 178.642 38.784C179.346 37.76 179.698 36.432 179.698 34.8V31.632C178.866 33.072 177.682 34.192 176.146 34.992C174.642 35.76 173.042 36.144 171.346 36.144ZM173.506 31.008C174.21 31.008 174.882 30.896 175.522 30.672C176.162 30.448 176.754 30.144 177.298 29.76C177.842 29.376 178.322 28.928 178.738 28.416C179.154 27.872 179.474 27.328 179.698 26.784V20.784C179.314 19.792 178.77 18.928 178.066 18.192C177.394 17.456 176.626 16.896 175.762 16.512C174.93 16.096 174.05 15.888 173.122 15.888C172.13 15.888 171.234 16.096 170.434 16.512C169.634 16.928 168.946 17.52 168.37 18.288C167.794 19.024 167.346 19.856 167.026 20.784C166.738 21.68 166.594 22.624 166.594 23.616C166.594 24.64 166.77 25.6 167.122 26.496C167.474 27.392 167.954 28.176 168.562 28.848C169.202 29.52 169.938 30.048 170.77 30.432C171.634 30.816 172.546 31.008 173.506 31.008ZM191.88 0.959999H198.312V27.936C198.312 29.088 198.504 29.872 198.888 30.288C199.272 30.672 199.8 30.864 200.472 30.864C200.984 30.864 201.512 30.8 202.056 30.672C202.6 30.544 203.08 30.384 203.496 30.192L204.36 35.088C203.496 35.504 202.488 35.824 201.336 36.048C200.184 36.272 199.144 36.384 198.216 36.384C196.2 36.384 194.632 35.856 193.512 34.8C192.424 33.712 191.88 32.176 191.88 30.192V0.959999ZM207.114 0.959999H213.546V27.936C213.546 29.088 213.738 29.872 214.122 30.288C214.506 30.672 215.034 30.864 215.706 30.864C216.218 30.864 216.746 30.8 217.29 30.672C217.834 30.544 218.314 30.384 218.73 30.192L219.594 35.088C218.73 35.504 217.722 35.824 216.57 36.048C215.418 36.272 214.378 36.384 213.45 36.384C211.434 36.384 209.866 35.856 208.746 34.8C207.658 33.712 207.114 32.176 207.114 30.192V0.959999ZM221.706 40.896C222.282 41.024 222.81 41.136 223.29 41.232C223.802 41.328 224.234 41.376 224.586 41.376C225.194 41.376 225.69 41.216 226.074 40.896C226.49 40.608 226.89 40.064 227.274 39.264C227.658 38.496 228.058 37.408 228.474 36L218.538 10.848H225.21L231.978 29.424L237.93 10.848H244.074L233.514 40.992C233.13 42.112 232.538 43.12 231.738 44.016C230.97 44.944 229.994 45.664 228.81 46.176C227.658 46.72 226.362 46.992 224.922 46.992C224.41 46.992 223.898 46.944 223.386 46.848C222.874 46.784 222.314 46.656 221.706 46.464V40.896Z" fill="#27AE62"/>
</svg>
