<svg width="248" height="56" viewBox="0 0 248 56" fill="none" xmlns="http://www.w3.org/2000/svg">
<path d="M32.208 10.92V45H25.632V30.456H10.176V45H3.552V10.92H10.176V24.696H25.632V10.92H32.208ZM36.6844 37.56C36.6844 35.928 37.1324 34.504 38.0284 33.288C38.9564 32.04 40.2364 31.08 41.8684 30.408C43.5004 29.736 45.3724 29.4 47.4844 29.4C48.5404 29.4 49.6124 29.48 50.7004 29.64C51.7884 29.8 52.7324 30.056 53.5324 30.408V29.064C53.5324 27.464 53.0524 26.232 52.0924 25.368C51.1644 24.504 49.7724 24.072 47.9164 24.072C46.5404 24.072 45.2284 24.312 43.9804 24.792C42.7324 25.272 41.4204 25.976 40.0444 26.904L37.9804 22.68C39.6444 21.592 41.3404 20.776 43.0684 20.232C44.8284 19.688 46.6684 19.416 48.5884 19.416C52.1724 19.416 54.9564 20.312 56.9404 22.104C58.9564 23.896 59.9644 26.456 59.9644 29.784V37.8C59.9644 38.472 60.0764 38.952 60.3004 39.24C60.5564 39.528 60.9564 39.704 61.5004 39.768V45C60.9244 45.096 60.3964 45.176 59.9164 45.24C59.4684 45.304 59.0844 45.336 58.7644 45.336C57.4844 45.336 56.5084 45.048 55.8364 44.472C55.1964 43.896 54.7964 43.192 54.6364 42.36L54.4924 41.064C53.4044 42.472 52.0444 43.56 50.4124 44.328C48.7804 45.096 47.1164 45.48 45.4204 45.48C43.7564 45.48 42.2524 45.144 40.9084 44.472C39.5964 43.768 38.5564 42.824 37.7884 41.64C37.0524 40.424 36.6844 39.064 36.6844 37.56ZM52.3324 38.856C52.6844 38.472 52.9724 38.088 53.1964 37.704C53.4204 37.32 53.5324 36.968 53.5324 36.648V34.104C52.7644 33.784 51.9324 33.544 51.0364 33.384C50.1404 33.192 49.2924 33.096 48.4924 33.096C46.8284 33.096 45.4524 33.464 44.3644 34.2C43.3084 34.904 42.7804 35.848 42.7804 37.032C42.7804 37.672 42.9564 38.28 43.3084 38.856C43.6604 39.432 44.1724 39.896 44.8444 40.248C45.5164 40.6 46.3164 40.776 47.2444 40.776C48.2044 40.776 49.1484 40.6 50.0764 40.248C51.0044 39.864 51.7564 39.4 52.3324 38.856ZM75.2389 45.48C73.0949 45.48 71.0469 45.128 69.0949 44.424C67.1429 43.72 65.4629 42.68 64.0549 41.304L66.3589 37.128C67.8629 38.344 69.3349 39.24 70.7749 39.816C72.2469 40.392 73.6549 40.68 74.9989 40.68C76.2469 40.68 77.2389 40.456 77.9749 40.008C78.7429 39.56 79.1269 38.888 79.1269 37.992C79.1269 37.384 78.9189 36.92 78.5029 36.6C78.0869 36.248 77.4789 35.944 76.6789 35.688C75.9109 35.432 74.9669 35.144 73.8469 34.824C71.9909 34.216 70.4389 33.624 69.1909 33.048C67.9429 32.472 66.9989 31.752 66.3589 30.888C65.7509 29.992 65.4469 28.856 65.4469 27.48C65.4469 25.816 65.8629 24.392 66.6949 23.208C67.5589 21.992 68.7429 21.048 70.2469 20.376C71.7829 19.704 73.5749 19.368 75.6229 19.368C77.4149 19.368 79.1109 19.656 80.7109 20.232C82.3109 20.776 83.7669 21.672 85.0789 22.92L82.4869 27C81.2069 26.008 79.9909 25.288 78.8389 24.84C77.6869 24.36 76.5189 24.12 75.3349 24.12C74.6629 24.12 74.0229 24.2 73.4149 24.36C72.8389 24.52 72.3589 24.792 71.9749 25.176C71.6229 25.528 71.4469 26.04 71.4469 26.712C71.4469 27.32 71.6069 27.8 71.9269 28.152C72.2789 28.472 72.7909 28.76 73.4629 29.016C74.1669 29.272 75.0149 29.56 76.0069 29.88C78.0229 30.456 79.7189 31.048 81.0949 31.656C82.5029 32.264 83.5589 33.016 84.2629 33.912C84.9669 34.776 85.3189 35.976 85.3189 37.512C85.3189 40.008 84.4069 41.96 82.5829 43.368C80.7589 44.776 78.3109 45.48 75.2389 45.48ZM113.07 45H106.638V30.888C106.638 28.936 106.254 27.48 105.486 26.52C104.75 25.56 103.726 25.08 102.414 25.08C101.646 25.08 100.83 25.304 99.9656 25.752C99.1016 26.2 98.3176 26.824 97.6136 27.624C96.9416 28.392 96.4456 29.288 96.1256 30.312V45H89.6936V9.96H96.1256V24.504C97.0536 22.904 98.3176 21.656 99.9176 20.76C101.518 19.864 103.262 19.416 105.15 19.416C106.782 19.416 108.11 19.704 109.134 20.28C110.158 20.824 110.958 21.576 111.534 22.536C112.11 23.464 112.51 24.52 112.734 25.704C112.958 26.856 113.07 28.056 113.07 29.304V45ZM133.594 43.704C133.05 43.928 132.394 44.184 131.626 44.472C130.858 44.76 130.026 44.984 129.13 45.144C128.266 45.336 127.386 45.432 126.49 45.432C125.306 45.432 124.218 45.224 123.226 44.808C122.234 44.392 121.434 43.736 120.826 42.84C120.25 41.912 119.962 40.712 119.962 39.24V24.792H116.65V19.848H119.962V11.688H126.394V19.848H131.674V24.792H126.394V37.08C126.426 37.944 126.666 38.568 127.114 38.952C127.562 39.336 128.122 39.528 128.794 39.528C129.466 39.528 130.122 39.416 130.762 39.192C131.402 38.968 131.914 38.776 132.298 38.616L133.594 43.704ZM135.216 37.56C135.216 35.928 135.664 34.504 136.56 33.288C137.488 32.04 138.768 31.08 140.4 30.408C142.032 29.736 143.904 29.4 146.016 29.4C147.072 29.4 148.144 29.48 149.232 29.64C150.32 29.8 151.264 30.056 152.064 30.408V29.064C152.064 27.464 151.584 26.232 150.624 25.368C149.696 24.504 148.304 24.072 146.448 24.072C145.072 24.072 143.76 24.312 142.512 24.792C141.264 25.272 139.952 25.976 138.576 26.904L136.512 22.68C138.176 21.592 139.872 20.776 141.6 20.232C143.36 19.688 145.2 19.416 147.12 19.416C150.704 19.416 153.488 20.312 155.472 22.104C157.488 23.896 158.496 26.456 158.496 29.784V37.8C158.496 38.472 158.608 38.952 158.832 39.24C159.088 39.528 159.488 39.704 160.032 39.768V45C159.456 45.096 158.928 45.176 158.448 45.24C158 45.304 157.616 45.336 157.296 45.336C156.016 45.336 155.04 45.048 154.368 44.472C153.728 43.896 153.328 43.192 153.168 42.36L153.024 41.064C151.936 42.472 150.576 43.56 148.944 44.328C147.312 45.096 145.648 45.48 143.952 45.48C142.288 45.48 140.784 45.144 139.44 44.472C138.128 43.768 137.088 42.824 136.32 41.64C135.584 40.424 135.216 39.064 135.216 37.56ZM150.864 38.856C151.216 38.472 151.504 38.088 151.728 37.704C151.952 37.32 152.064 36.968 152.064 36.648V34.104C151.296 33.784 150.464 33.544 149.568 33.384C148.672 33.192 147.824 33.096 147.024 33.096C145.36 33.096 143.984 33.464 142.896 34.2C141.84 34.904 141.312 35.848 141.312 37.032C141.312 37.672 141.488 38.28 141.84 38.856C142.192 39.432 142.704 39.896 143.376 40.248C144.048 40.6 144.848 40.776 145.776 40.776C146.736 40.776 147.68 40.6 148.608 40.248C149.536 39.864 150.288 39.4 150.864 38.856ZM174.346 45.144C172.682 45.144 171.146 44.824 169.738 44.184C168.362 43.512 167.162 42.584 166.138 41.4C165.146 40.216 164.378 38.856 163.834 37.32C163.29 35.784 163.018 34.152 163.018 32.424C163.018 30.6 163.306 28.904 163.882 27.336C164.458 25.768 165.258 24.392 166.282 23.208C167.338 21.992 168.57 21.064 169.978 20.424C171.418 19.752 173.002 19.416 174.73 19.416C176.682 19.416 178.394 19.864 179.866 20.76C181.338 21.624 182.554 22.792 183.514 24.264V19.848H189.13V43.8C189.13 46.296 188.522 48.424 187.306 50.184C186.122 51.976 184.474 53.336 182.362 54.264C180.25 55.224 177.85 55.704 175.162 55.704C172.442 55.704 170.138 55.24 168.25 54.312C166.362 53.416 164.746 52.136 163.402 50.472L166.906 47.064C167.866 48.248 169.066 49.176 170.506 49.848C171.978 50.52 173.53 50.856 175.162 50.856C176.538 50.856 177.786 50.6 178.906 50.088C180.058 49.608 180.97 48.84 181.642 47.784C182.346 46.76 182.698 45.432 182.698 43.8V40.632C181.866 42.072 180.682 43.192 179.146 43.992C177.642 44.76 176.042 45.144 174.346 45.144ZM176.506 40.008C177.21 40.008 177.882 39.896 178.522 39.672C179.162 39.448 179.754 39.144 180.298 38.76C180.842 38.376 181.322 37.928 181.738 37.416C182.154 36.872 182.474 36.328 182.698 35.784V29.784C182.314 28.792 181.77 27.928 181.066 27.192C180.394 26.456 179.626 25.896 178.762 25.512C177.93 25.096 177.05 24.888 176.122 24.888C175.13 24.888 174.234 25.096 173.434 25.512C172.634 25.928 171.946 26.52 171.37 27.288C170.794 28.024 170.346 28.856 170.026 29.784C169.738 30.68 169.594 31.624 169.594 32.616C169.594 33.64 169.77 34.6 170.122 35.496C170.474 36.392 170.954 37.176 171.562 37.848C172.202 38.52 172.938 39.048 173.77 39.432C174.634 39.816 175.546 40.008 176.506 40.008ZM194.88 9.96H201.312V36.936C201.312 38.088 201.504 38.872 201.888 39.288C202.272 39.672 202.8 39.864 203.472 39.864C203.984 39.864 204.512 39.8 205.056 39.672C205.6 39.544 206.08 39.384 206.496 39.192L207.36 44.088C206.496 44.504 205.488 44.824 204.336 45.048C203.184 45.272 202.144 45.384 201.216 45.384C199.2 45.384 197.632 44.856 196.512 43.8C195.424 42.712 194.88 41.176 194.88 39.192V9.96ZM210.114 9.96H216.546V36.936C216.546 38.088 216.738 38.872 217.122 39.288C217.506 39.672 218.034 39.864 218.706 39.864C219.218 39.864 219.746 39.8 220.29 39.672C220.834 39.544 221.314 39.384 221.73 39.192L222.594 44.088C221.73 44.504 220.722 44.824 219.57 45.048C218.418 45.272 217.378 45.384 216.45 45.384C214.434 45.384 212.866 44.856 211.746 43.8C210.658 42.712 210.114 41.176 210.114 39.192V9.96ZM224.706 49.896C225.282 50.024 225.81 50.136 226.29 50.232C226.802 50.328 227.234 50.376 227.586 50.376C228.194 50.376 228.69 50.216 229.074 49.896C229.49 49.608 229.89 49.064 230.274 48.264C230.658 47.496 231.058 46.408 231.474 45L221.538 19.848H228.21L234.978 38.424L240.93 19.848H247.074L236.514 49.992C236.13 51.112 235.538 52.12 234.738 53.016C233.97 53.944 232.994 54.664 231.81 55.176C230.658 55.72 229.362 55.992 227.922 55.992C227.41 55.992 226.898 55.944 226.386 55.848C225.874 55.784 225.314 55.656 224.706 55.464V49.896Z" fill="#145CFC"/>
</svg>
